<?xml version="1.0" standalone="no"?>
<!DOCTYPE svg PUBLIC "-//W3C//DTD SVG 20010904//EN"
 "http://www.w3.org/TR/2001/REC-SVG-20010904/DTD/svg10.dtd">
<svg version="1.0" xmlns="http://www.w3.org/2000/svg"
 width="1000.000000pt" height="1000.000000pt" viewBox="0 0 1000.000000 1000.000000"
 preserveAspectRatio="xMidYMid meet">
<metadata>
Created by potrace 1.14, written by Peter Selinger 2001-2017
</metadata>
<g transform="translate(0.000000,1000.000000) scale(0.100000,-0.100000)"
fill="#000000" stroke="none">
<path d="M4938 9075 c-3 -4 -4 -113 -2 -243 3 -130 6 -300 8 -376 1 -77 6
-141 12 -143 17 -5 244 -8 245 -3 7 44 32 550 33 690 l1 74 -145 4 c-80 2
-148 0 -152 -3z"/>
<path d="M3825 8927 c-142 -38 -235 -68 -235 -77 0 -10 42 -144 156 -498 66
-202 77 -231 92 -224 9 5 55 19 102 31 95 26 140 41 140 48 0 3 -7 33 -16 67
-9 33 -17 68 -19 76 -2 8 -17 74 -34 145 -18 72 -48 198 -68 280 -19 83 -38
155 -42 160 -4 7 -29 5 -76 -8z"/>
<path d="M6227 8693 c-33 -115 -79 -279 -104 -366 -24 -88 -42 -161 -40 -164
3 -2 11 -6 19 -7 18 -3 191 -58 201 -63 4 -2 9 2 11 9 11 34 90 258 106 303
36 99 140 401 140 408 0 6 -190 69 -245 81 l-30 6 -58 -207z"/>
<path d="M2529 8367 c-64 -39 -128 -81 -143 -92 l-26 -20 79 -115 c44 -63 110
-160 148 -215 37 -55 99 -145 138 -201 l70 -100 72 47 c40 26 95 61 122 78
l50 30 -85 147 c-94 160 -91 155 -183 311 -35 59 -75 129 -90 156 -14 26 -28
47 -31 47 -3 0 -57 -33 -121 -73z"/>
<path d="M7459 8232 c-36 -59 -128 -203 -203 -321 -75 -117 -136 -214 -134
-216 14 -10 166 -113 175 -118 8 -5 27 14 52 50 23 32 58 81 78 110 254 349
314 433 319 446 3 10 -24 35 -89 80 -51 35 -102 67 -113 70 -16 5 -31 -13 -85
-101z"/>
<path d="M4956 7683 c1 -81 3 -208 4 -280 1 -73 5 -133 8 -134 44 -7 182 -3
183 5 3 23 6 77 13 211 3 77 9 185 12 241 l5 100 -114 3 -113 2 2 -148z"/>
<path d="M4140 7719 c-96 -26 -170 -50 -170 -55 0 -3 25 -85 56 -182 31 -98
67 -215 82 -262 14 -47 26 -86 27 -87 0 -2 188 49 193 52 2 2 -7 40 -18 86
-12 46 -23 92 -25 102 -2 10 -18 75 -35 145 -17 70 -34 138 -36 152 -12 65
-13 65 -74 49z"/>
<path d="M5902 7548 c-23 -84 -57 -206 -76 -270 l-33 -117 76 -26 c42 -14 81
-25 87 -25 6 0 15 15 21 33 25 75 125 364 133 382 4 11 13 34 18 50 6 17 13
38 17 47 6 14 -10 22 -93 47 -54 17 -101 31 -103 31 -3 0 -23 -69 -47 -152z"/>
<path d="M1549 7552 c-93 -103 -192 -223 -187 -227 2 -2 80 -64 173 -139 94
-75 177 -142 185 -149 13 -11 128 -103 183 -147 11 -8 25 -21 32 -27 16 -15
32 -17 37 -4 4 12 82 104 140 167 l48 51 -98 90 c-53 50 -119 112 -147 138
-246 233 -307 290 -314 293 -4 1 -27 -19 -52 -46z"/>
<path d="M8510 7404 c-30 -26 -80 -68 -110 -95 -30 -26 -65 -56 -76 -66 -66
-56 -139 -119 -148 -128 -6 -6 -52 -45 -103 -88 l-92 -78 67 -82 67 -82 240
185 c132 102 256 197 275 212 19 15 48 37 64 50 l29 24 -68 85 c-37 46 -73 90
-79 97 -9 10 -23 3 -66 -34z"/>
<path d="M3177 7300 c-49 -32 -93 -62 -99 -68 -6 -6 2 -26 24 -58 19 -27 79
-114 133 -194 164 -240 149 -223 176 -202 13 10 52 35 87 56 48 29 62 42 57
55 -16 42 -271 470 -280 470 -5 0 -50 -27 -98 -59z"/>
<path d="M6824 7233 c-21 -32 -60 -94 -89 -138 -127 -196 -176 -277 -172 -281
2 -3 33 -24 68 -49 l63 -44 23 32 c12 18 26 37 30 42 5 6 49 66 98 135 49 69
93 130 97 135 37 46 78 105 78 112 0 7 -22 23 -132 96 l-27 19 -37 -59z"/>
<path d="M4998 6822 l-28 -3 4 -177 c2 -97 5 -186 5 -198 1 -18 8 -20 66 -22
55 -1 65 1 66 16 0 9 2 37 4 62 1 25 5 107 9 183 l7 137 -38 1 c-21 0 -45 1
-53 3 -8 1 -27 0 -42 -2z"/>
<path d="M4395 6745 c-5 -2 -35 -11 -66 -20 l-57 -16 13 -42 c44 -142 105
-331 109 -334 5 -5 118 27 128 36 4 3 -2 42 -13 86 -12 44 -22 85 -23 90 -41
194 -50 215 -91 200z"/>
<path d="M2490 6733 c0 -5 -17 -26 -38 -48 -21 -22 -55 -62 -77 -88 l-39 -49
30 -27 c16 -15 108 -89 204 -166 96 -77 181 -145 188 -152 11 -10 24 0 70 55
31 37 65 75 76 85 19 17 19 17 -2 35 -11 10 -83 77 -159 149 -196 187 -226
213 -240 213 -7 0 -13 -3 -13 -7z"/>
<path d="M5670 6726 c0 -3 -21 -76 -46 -163 -62 -214 -62 -211 5 -234 30 -11
55 -18 56 -16 5 5 118 334 122 353 4 19 -4 24 -58 43 -63 21 -79 25 -79 17z"/>
<path d="M7564 6592 c-22 -20 -67 -59 -98 -87 -32 -27 -68 -58 -80 -69 -11
-10 -60 -52 -109 -93 -94 -81 -91 -73 -45 -128 9 -11 25 -31 36 -44 l19 -24
221 169 c139 107 219 174 216 183 -7 21 -98 130 -109 130 -5 0 -28 -16 -51
-37z"/>
<path d="M777 6402 c-76 -162 -109 -244 -100 -252 4 -4 112 -49 238 -100 127
-50 244 -98 260 -105 17 -7 69 -28 117 -48 l86 -35 22 51 c12 29 42 94 67 146
24 51 43 95 41 96 -6 5 -653 332 -669 337 -12 5 -26 -16 -62 -90z"/>
<path d="M3708 6444 c-38 -24 -68 -47 -68 -51 0 -3 6 -14 13 -22 8 -9 53 -74
102 -146 48 -71 93 -136 100 -143 10 -11 23 -6 73 27 l61 41 -98 167 c-54 92
-102 168 -107 169 -5 2 -39 -17 -76 -42z"/>
<path d="M6291 6398 c-13 -23 -28 -47 -33 -52 -5 -6 -42 -63 -82 -126 l-73
-115 50 -32 50 -32 109 151 c61 84 112 157 115 164 3 9 -94 84 -109 84 -2 0
-14 -19 -27 -42z"/>
<path d="M9180 6246 c-52 -24 -115 -52 -140 -63 -25 -11 -130 -58 -235 -104
-104 -45 -195 -86 -201 -91 -13 -9 54 -178 71 -178 14 0 689 261 699 270 14
14 -69 210 -88 209 -6 0 -54 -19 -106 -43z"/>
<path d="M3183 5993 c-26 -32 -52 -61 -57 -64 -13 -10 -3 -22 61 -70 32 -24
60 -47 63 -50 14 -16 172 -139 179 -139 5 0 15 10 24 23 8 12 30 37 48 55 l33
34 -139 134 c-77 73 -145 133 -152 134 -6 0 -33 -26 -60 -57z"/>
<path d="M6697 5844 l-146 -126 31 -39 c17 -21 35 -39 40 -39 8 0 261 193 297
226 12 11 9 20 -20 58 -19 25 -39 46 -45 46 -6 0 -77 -57 -157 -126z"/>
<path d="M1907 5867 c-62 -131 -80 -178 -71 -186 5 -4 63 -29 129 -55 66 -26
136 -55 155 -63 19 -8 44 -19 55 -24 11 -5 54 -22 95 -38 l75 -29 48 100 c26
55 47 104 47 108 0 5 -112 66 -249 134 l-250 126 -34 -73z"/>
<path d="M8140 5782 c-8 -3 -37 -15 -65 -28 -27 -12 -133 -59 -235 -103 -101
-45 -188 -85 -193 -90 -7 -7 33 -113 47 -129 3 -2 489 183 511 195 20 12 -43
162 -65 155z"/>
<path d="M2822 5446 c-27 -54 -63 -138 -60 -141 17 -15 363 -144 368 -138 4 4
21 38 37 74 l30 66 -177 89 -177 90 -21 -40z"/>
<path d="M7050 5300 c-96 -43 -175 -82 -175 -87 1 -20 28 -83 36 -83 10 0 352
129 358 136 6 6 -17 77 -31 96 -12 15 -29 9 -188 -62z"/>
<path d="M396 5193 c-19 -96 -31 -185 -42 -300 l-7 -73 34 -1 c19 0 41 -2 49
-3 8 -2 52 -6 98 -10 45 -4 99 -9 120 -11 20 -2 73 -7 117 -11 44 -3 94 -8
110 -9 17 -2 68 -6 115 -10 47 -3 92 -8 102 -11 17 -5 21 8 34 121 8 73 24
178 30 196 4 16 -1 17 -156 44 -14 2 -77 14 -140 25 -63 12 -164 30 -225 40
-60 11 -121 22 -135 25 -92 18 -98 17 -104 -12z"/>
<path d="M1629 4990 c-1 -5 -2 -13 -3 -17 -14 -62 -28 -173 -30 -232 -1 -27 3
-35 19 -36 11 -1 58 -5 105 -9 47 -4 101 -9 120 -11 215 -20 302 -27 306 -22
6 5 14 46 18 92 2 16 7 57 11 90 l7 61 -78 12 c-44 7 -88 14 -99 16 -11 2 -63
11 -115 20 -52 9 -115 21 -140 26 -92 18 -120 21 -121 10z"/>
<path d="M9619 4976 c-2 -2 -31 -6 -64 -10 -33 -3 -76 -8 -95 -11 -19 -3 -60
-7 -90 -10 -30 -4 -82 -10 -115 -15 -33 -5 -86 -12 -118 -15 -32 -4 -66 -8
-75 -10 -9 -1 -46 -6 -82 -10 -36 -4 -69 -9 -73 -12 -4 -3 -5 -35 -1 -71 4
-37 7 -75 6 -85 -1 -17 6 -18 101 -12 56 3 118 8 137 10 19 2 76 6 125 10 50
3 110 8 135 10 80 7 234 18 254 19 17 0 17 7 11 86 -9 111 -14 130 -34 130
-10 0 -20 -2 -22 -4z"/>
<path d="M2616 4793 c-3 -16 -8 -45 -11 -65 -3 -21 -7 -54 -10 -73 -3 -19 -2
-35 3 -36 4 0 14 -2 22 -4 9 -1 49 -5 90 -9 41 -4 93 -8 115 -11 22 -2 68 -7
101 -10 l62 -5 11 75 c6 42 11 82 11 89 0 8 -29 17 -87 26 -49 8 -92 15 -98
16 -39 9 -185 34 -197 34 -3 0 -9 -12 -12 -27z"/>
<path d="M8295 4809 c-33 -4 -82 -11 -110 -14 -27 -3 -111 -14 -185 -23 l-135
-17 3 -60 c4 -71 6 -75 35 -70 12 2 63 6 112 10 50 4 108 8 130 10 22 1 84 6
138 10 54 4 106 8 115 10 9 2 22 4 29 4 12 1 11 38 -2 119 -7 36 -14 37 -130
21z"/>
<path d="M7265 4680 c-71 -10 -148 -20 -170 -23 -22 -4 -46 -6 -53 -7 -9 0
-12 -14 -9 -47 1 -27 7 -47 12 -46 13 2 145 11 255 18 126 8 130 10 130 48 0
45 -10 77 -24 76 -6 -1 -69 -9 -141 -19z"/>
<path d="M2937 4164 c-1 -1 -31 -5 -67 -8 -36 -4 -87 -9 -113 -13 -71 -9 -88
-10 -126 -12 l-33 -1 6 -57 c9 -76 28 -163 35 -163 3 1 89 18 191 39 209 43
192 29 175 141 -4 30 -8 60 -8 67 0 9 -50 15 -60 7z"/>
<path d="M2045 4064 c-55 -6 -129 -15 -165 -18 -36 -4 -99 -11 -140 -16 -41
-6 -90 -11 -109 -12 l-33 -2 7 -61 c10 -90 11 -94 24 -172 7 -40 16 -73 19
-73 4 0 50 9 102 20 52 11 109 23 125 26 17 3 75 14 130 26 55 11 118 24 140
29 22 4 43 8 46 9 6 0 -33 246 -41 252 -3 3 -50 -1 -105 -8z"/>
<path d="M7016 4051 c-3 -3 -7 -22 -11 -42 l-7 -36 104 -22 c56 -12 113 -23
126 -26 13 -2 31 -6 40 -9 9 -3 33 -8 52 -11 19 -3 42 -8 52 -11 13 -4 18 6
26 43 6 26 9 49 7 51 -8 8 -386 69 -389 63z"/>
<path d="M1005 3949 c-33 -4 -87 -10 -120 -13 -33 -4 -76 -8 -95 -10 -19 -3
-60 -7 -90 -11 -30 -3 -71 -7 -90 -10 -19 -2 -62 -7 -95 -10 -143 -14 -169
-19 -161 -33 2 -4 7 -34 10 -67 9 -74 33 -227 45 -277 5 -21 6 -38 3 -38 -3 0
-2 -4 4 -9 5 -6 28 -6 59 0 28 6 61 12 75 15 14 3 59 12 100 21 79 16 86 17
165 33 155 30 350 71 353 75 3 2 -1 35 -8 72 -19 102 -19 101 -26 161 -3 30
-8 63 -9 71 -2 9 -4 22 -4 29 -1 13 -24 14 -116 1z"/>
<path d="M7834 3859 c-7 -43 -7 -62 0 -64 12 -3 196 -42 239 -50 46 -9 78 -15
190 -39 77 -17 110 -20 113 -12 9 26 22 110 17 122 -2 6 -25 14 -51 18 -26 3
-58 8 -72 11 -14 2 -108 18 -210 35 -102 17 -192 33 -201 36 -12 3 -17 -9 -25
-57z"/>
<path d="M8859 3661 l-15 -80 26 -5 c14 -3 36 -8 50 -10 14 -3 90 -19 170 -36
80 -17 227 -48 327 -69 l182 -37 15 85 c9 47 16 91 16 97 0 7 -21 15 -46 19
-25 3 -54 8 -64 10 -9 2 -33 6 -51 9 -19 3 -43 7 -54 10 -11 2 -45 7 -75 11
-30 3 -71 10 -90 15 -19 5 -55 11 -80 14 -25 3 -56 8 -70 11 -14 3 -41 7 -60
10 -19 3 -46 7 -60 10 -14 3 -43 8 -65 11 l-41 6 -15 -81z"/>
<path d="M2965 3532 c-88 -38 -167 -72 -176 -77 -15 -9 -11 -22 32 -111 l49
-102 167 90 c93 50 172 93 176 97 10 9 -64 170 -78 170 -5 0 -82 -30 -170 -67z"/>
<path d="M6815 3460 c-8 -16 -15 -31 -15 -33 0 -3 18 -14 40 -26 22 -12 99
-52 169 -91 71 -38 133 -70 138 -70 4 0 15 18 25 40 l16 39 -175 85 c-96 48
-176 86 -178 86 -3 0 -11 -13 -20 -30z"/>
<path d="M2200 3209 c-91 -38 -178 -75 -195 -83 -16 -7 -56 -23 -88 -36 -66
-26 -73 -34 -59 -63 6 -12 36 -75 66 -139 31 -65 58 -118 61 -118 3 0 29 13
58 29 29 15 97 52 152 82 157 83 249 133 268 144 15 10 12 21 -37 120 -29 61
-55 115 -57 122 -3 8 -61 -13 -169 -58z"/>
<path d="M7561 3073 c-12 -25 -19 -49 -14 -53 4 -4 49 -29 98 -56 50 -26 154
-83 233 -126 78 -43 147 -78 151 -78 11 0 62 100 56 110 -2 4 -44 27 -92 50
-49 24 -151 74 -228 113 -196 97 -178 93 -204 40z"/>
<path d="M3414 3083 c-10 -10 -42 -36 -69 -58 -28 -21 -52 -42 -55 -45 -3 -3
-38 -32 -77 -64 -40 -32 -73 -61 -73 -65 0 -7 22 -33 98 -116 52 -57 53 -57
74 -39 57 50 258 258 256 264 -5 12 -122 140 -128 140 -4 0 -15 -8 -26 -17z"/>
<path d="M6471 2984 l-23 -27 141 -140 140 -141 26 24 c14 13 25 28 25 32 0 8
-37 44 -180 178 -15 14 -45 42 -67 63 l-39 37 -23 -26z"/>
<path d="M1110 2749 c-157 -66 -298 -125 -315 -133 -16 -7 -45 -19 -63 -26
-29 -11 -33 -16 -27 -39 9 -36 172 -371 181 -371 4 0 46 21 93 47 90 48 152
82 286 153 131 70 208 111 252 136 l42 24 -75 154 c-41 85 -74 159 -74 165 0
6 -3 11 -7 11 -5 0 -136 -55 -293 -121z"/>
<path d="M8491 2593 c-25 -52 -30 -68 -19 -75 12 -7 184 -102 378 -206 41 -22
120 -65 175 -95 55 -31 103 -53 107 -50 8 4 78 137 78 148 0 2 -57 32 -127 66
-71 34 -225 110 -344 169 l-216 108 -32 -65z"/>
<path d="M2769 2553 c-13 -9 -26 -19 -29 -23 -3 -3 -81 -68 -175 -144 -93 -77
-179 -147 -189 -157 -18 -17 -18 -19 30 -75 27 -32 77 -88 112 -125 l63 -67
200 201 200 200 -43 45 c-64 68 -80 85 -114 125 -30 35 -31 36 -55 20z"/>
<path d="M7078 2400 c-16 -16 -28 -32 -28 -37 0 -12 384 -393 395 -392 18 1
79 80 68 87 -6 4 -71 64 -144 133 -179 168 -250 234 -258 236 -3 1 -18 -11
-33 -27z"/>
<path d="M1958 1892 c-1 -4 -28 -28 -58 -52 -30 -25 -57 -47 -60 -50 -3 -3
-30 -25 -60 -50 -30 -25 -64 -52 -75 -61 -174 -143 -218 -179 -263 -217 l-52
-44 52 -61 c29 -34 81 -91 114 -127 34 -36 80 -84 101 -108 l40 -43 272 272
272 271 -43 47 c-23 25 -61 66 -84 91 -23 25 -59 66 -80 92 -36 43 -67 60 -76
40z"/>
<path d="M7827 1672 l-47 -47 273 -273 273 -273 54 57 54 56 -85 82 c-47 44
-145 137 -219 206 -74 69 -150 141 -171 160 -20 19 -48 45 -61 57 l-24 23 -47
-48z"/>
</g>
</svg>
