<svg width="26" height="26" viewBox="0 0 26 26" xmlns="http://www.w3.org/2000/svg">
<path fill-rule="evenodd" clip-rule="evenodd" d="M21.5 5.93066H4.5C2.84315 5.93066 1.5 7.27381 1.5 8.93066V18.9307C1.5 20.5875 2.84315 21.9307 4.5 21.9307H21.5C23.1569 21.9307 24.5 20.5875 24.5 18.9307V8.93066C24.5 7.27381 23.1569 5.93066 21.5 5.93066ZM4.5 4.93066C2.29086 4.93066 0.5 6.72152 0.5 8.93066V18.9307C0.5 21.1398 2.29086 22.9307 4.5 22.9307H21.5C23.7091 22.9307 25.5 21.1398 25.5 18.9307V8.93066C25.5 6.72153 23.7091 4.93066 21.5 4.93066H4.5Z"/>
<path fill-rule="evenodd" clip-rule="evenodd" d="M13.0018 15.5275L4.2285 9.85052L4.77176 9.01095L12.998 14.3339L21.2255 8.93464L21.7742 9.77069L13.0018 15.5275Z"/>
</svg>
