<?xml version="1.0" encoding="utf-8"?><svg viewBox="0 0 250 56" xmlns="http://www.w3.org/2000/svg" xmlns:xlink="http://www.w3.org/1999/xlink"><style>:root>svg{display:none}:root>svg:target{display:block}</style><svg viewBox="0 0 26 26" id="address" xmlns="http://www.w3.org/2000/svg"><path fill-rule="evenodd" clip-rule="evenodd" d="M18.529 16.586c1.649-2.622 2.612-4.952 2.612-7.194a8.142 8.142 0 00-16.283 0c0 2.242.964 4.572 2.613 7.194 1.338 2.127 3.062 4.349 4.962 6.797l.567.731.567-.732c1.9-2.447 3.624-4.67 4.962-6.796zm-4.897 8.345l.712-.918c4.245-5.47 7.797-10.048 7.797-14.621a9.142 9.142 0 10-18.283 0c0 4.573 3.553 9.151 7.798 14.621A1049.84 1049.84 0 0113 25.75l.632-.819z"/><path fill-rule="evenodd" clip-rule="evenodd" d="M13 12.722a3.33 3.33 0 100-6.66 3.33 3.33 0 000 6.66zm0 1a4.33 4.33 0 100-8.66 4.33 4.33 0 000 8.66z"/></svg><svg viewBox="0 0 136 22" id="arrow-type-1" xmlns="http://www.w3.org/2000/svg"><path fill-rule="evenodd" clip-rule="evenodd" d="M115 11H0v-1h115v1zM134.089 10.918L118.726.836l.548-.836 16.637 10.918-16.637 10.918-.548-.836 15.363-10.082z"/></svg><svg viewBox="0 0 250 22" id="arrow-type-2" xmlns="http://www.w3.org/2000/svg"><path fill-rule="evenodd" clip-rule="evenodd" d="M228 11.418H0v-1h228v1zM247.089 10.918L231.726.836l.548-.836 16.637 10.918-16.637 10.918-.548-.836 15.363-10.082z"/></svg><svg viewBox="0 0 136 22" id="arrow-type-3" xmlns="http://www.w3.org/2000/svg"><path fill-rule="evenodd" clip-rule="evenodd" d="M115 11.418H0v-1h115v1zM134.089 10.918L118.726.836l.548-.836 16.637 10.918-16.637 10.918-.548-.836 15.363-10.082z"/></svg><svg viewBox="0 0 26 26" id="clock" xmlns="http://www.w3.org/2000/svg"><path fill-rule="evenodd" clip-rule="evenodd" d="M13 22.5a9.5 9.5 0 100-19 9.5 9.5 0 000 19zm0 1c5.799 0 10.5-4.701 10.5-10.5S18.799 2.5 13 2.5 2.5 7.201 2.5 13 7.201 23.5 13 23.5z"/><path fill-rule="evenodd" clip-rule="evenodd" d="M13.5 5.5v8h-1v-8h1z"/><path fill-rule="evenodd" clip-rule="evenodd" d="M17.5 13.5h-5v-1h5v1z"/></svg><svg viewBox="0 0 24 24" id="close" xmlns="http://www.w3.org/2000/svg"><path fill-rule="evenodd" clip-rule="evenodd" d="M2.355 1.5l20.732 19.944-1.441 1.387L.913 2.887 2.355 1.5z"/><path fill-rule="evenodd" clip-rule="evenodd" d="M23.087 2.556L2.354 22.5.913 21.113 21.645 1.17l1.442 1.387z"/></svg><svg viewBox="0 0 26 26" id="email" xmlns="http://www.w3.org/2000/svg"><path fill-rule="evenodd" clip-rule="evenodd" d="M21.5 5.93h-17a3 3 0 00-3 3v10a3 3 0 003 3h17a3 3 0 003-3v-10a3 3 0 00-3-3zm-17-1a4 4 0 00-4 4v10a4 4 0 004 4h17a4 4 0 004-4v-10a4 4 0 00-4-4h-17z"/><path fill-rule="evenodd" clip-rule="evenodd" d="M13.002 15.527L4.228 9.851l.544-.84 8.226 5.323 8.228-5.4.548.837-8.772 5.756z"/></svg><svg viewBox="0 0 20 20" id="facebook" xmlns="http://www.w3.org/2000/svg"><path d="M15.04 11.25h-2.93V20H8.202v-8.75H5V7.656h3.203V4.883C8.203 1.758 10.078 0 12.93 0c1.367 0 2.812.273 2.812.273V3.36h-1.601c-1.563 0-2.032.938-2.032 1.954v2.343h3.477l-.547 3.594z"/></svg><svg viewBox="0 0 20 20" id="instagram" xmlns="http://www.w3.org/2000/svg"><path d="M9.77 5.238c2.46 0 4.492 2.032 4.492 4.492 0 2.5-2.032 4.493-4.492 4.493A4.468 4.468 0 015.277 9.73 4.493 4.493 0 019.77 5.238zm0 7.422c1.601 0 2.89-1.289 2.89-2.93 0-1.601-1.289-2.89-2.89-2.89-1.641 0-2.93 1.289-2.93 2.89 0 1.641 1.328 2.93 2.93 2.93zm5.703-7.578a1.05 1.05 0 01-1.055 1.055 1.05 1.05 0 01-1.055-1.055 1.05 1.05 0 011.055-1.055 1.05 1.05 0 011.055 1.055zm2.968 1.055c.079 1.445.079 5.781 0 7.226-.078 1.407-.39 2.617-1.406 3.672-1.015 1.016-2.265 1.328-3.672 1.406-1.445.079-5.781.079-7.226 0-1.407-.078-2.617-.39-3.672-1.406-1.016-1.055-1.328-2.265-1.406-3.672-.079-1.445-.079-5.781 0-7.226.078-1.407.39-2.657 1.406-3.672C3.52 1.449 4.73 1.137 6.137 1.059c1.445-.079 5.781-.079 7.226 0 1.407.078 2.657.39 3.672 1.406 1.016 1.015 1.328 2.265 1.406 3.672zm-1.875 8.75c.47-1.133.352-3.867.352-5.157 0-1.25.117-3.984-.352-5.156-.312-.742-.898-1.367-1.64-1.64-1.172-.47-3.906-.352-5.156-.352-1.29 0-4.024-.117-5.157.352a3.013 3.013 0 00-1.68 1.64c-.468 1.172-.351 3.906-.351 5.156 0 1.29-.117 4.024.352 5.157a2.962 2.962 0 001.68 1.68c1.132.468 3.866.351 5.156.351 1.25 0 3.984.117 5.156-.352.742-.312 1.367-.898 1.64-1.68z"/></svg><svg viewBox="0 0 66 56" id="logo" xmlns="http://www.w3.org/2000/svg"><path d="M12.266 49.305c.288.332.57.669.861.998l.91.958L10.296 55l-1.085-1.143c-.349-.392-.688-.796-1.03-1.193l4.084-3.36zM8.267 42.683c.325.777.693 1.537 1.09 2.28L4.698 47.47c-.474-.89-.914-1.8-1.304-2.734l4.873-2.052zM6.322 35.193c.085.803.217 1.602.37 2.394L1.51 38.636c-.188-.948-.342-1.9-.445-2.863l5.257-.58zM6.58 27.454l-.096.57-.048.287c-.015.096-.024.192-.037.286l-.07.575-.033.286a3.929 3.929 0 00-.029.289L1 29.266c.007-.116.022-.229.034-.344l.04-.345.082-.688c.015-.115.027-.228.044-.344l.058-.342.115-.683 5.207.934zM9.025 20.113l-.246.493-.123.248c-.038.084-.074.168-.11.253l-.438 1.01-4.904-1.98c.171-.407.349-.809.525-1.213.045-.1.086-.202.132-.303l.147-.296.293-.592 4.724 2.38zM13.466 13.778l-.363.38c-.115.13-.229.265-.342.397l-.341.4c-.113.132-.231.261-.335.404L7.963 12.04c.126-.168.265-.322.4-.483l.41-.477c.136-.158.27-.317.41-.474l.431-.454 3.852 3.626zM19.518 8.949c-.147.077-.284.173-.426.257l-.421.265-.421.265-.407.283-2.998-4.357.489-.34.505-.317.505-.315c.17-.104.334-.215.51-.308l2.664 4.567zM26.69 6.054l-.909.245c-.151.044-.303.077-.452.126l-.448.144-1.605-5.039.537-.173c.178-.058.36-.1.541-.151l1.088-.292 1.249 5.14zM34.4 5.32l-.888-.022-.443-.01-.442.013-.09-5.289.53-.012.53.012c.353.01.707.014 1.06.026L34.4 5.32zM42.001 6.8l-.792-.255-.397-.128c-.132-.043-.267-.075-.401-.11l1.434-5.092c.159.046.322.084.481.135l.474.151.948.308-1.747 4.99zM48.854 10.39l-.64-.445-.32-.224-.33-.207 2.849-4.456.395.247.382.267.765.535-3.101 4.283zM54.41 15.785l-.446-.573-.471-.549 4.006-3.455.563.66.532.685-4.184 3.232zM58.206 22.524c-.146-.423-.336-.828-.512-1.239l4.834-2.146c.212.49.435.98.614 1.484l-4.936 1.901zM59.92 30.07c-.02-.412-.08-.818-.128-1.227l5.248-.66c.058.489.125.977.151 1.468l-5.271.419zM59.424 37.798l.06-.274c.022-.091.041-.183.055-.276l.094-.556 5.217.873-.113.664c-.017.11-.041.221-.065.33l-.072.33-5.176-1.09zM56.756 45.058c.173-.291.315-.6.466-.905l4.74 2.344c-.18.363-.353.731-.558 1.082l-4.648-2.521zM52.124 51.26l.628-.661 3.862 3.614-.751.787-3.74-3.74zM17.817 44.747c.212.243.418.49.633.734l.666.703-2.743 2.743-.796-.838c-.255-.288-.506-.582-.756-.876l2.996-2.466zM14.884 39.892c.238.57.507 1.126.798 1.672L12.266 43.4a23.948 23.948 0 01-.958-2.005l3.576-1.504zM13.457 34.398c.062.59.158 1.175.271 1.757l-3.801.77a23.914 23.914 0 01-.325-2.098l3.855-.428zM13.647 28.725l-.07.418-.036.21c-.012.07-.017.14-.027.212-.031.281-.072.56-.096.844l-3.862-.354c.032-.336.077-.67.116-1.008.012-.084.019-.168.031-.252l.041-.25.084-.501 3.819.68zM15.44 23.342l-.181.363-.09.18c-.028.06-.052.123-.08.186l-.32.741-3.598-1.453c.125-.299.255-.592.385-.89.034-.075.063-.15.099-.222l.106-.216.214-.433 3.464 1.744zM18.697 18.696l-.267.279c-.084.096-.168.195-.25.291l-.25.291c-.082.099-.171.193-.245.296l-3.023-2.432c.092-.123.195-.236.294-.354l.3-.349c.102-.115.2-.233.302-.349l.315-.334 2.824 2.66zM23.134 15.154c-.108.055-.207.125-.313.19l-.31.192-.308.193-.298.21-2.2-3.196.36-.25.37-.234.37-.23c.125-.075.245-.16.373-.227l1.956 3.352zM28.397 13.03l-.667.18c-.11.031-.224.055-.332.091l-.327.106-1.177-3.696.393-.127c.13-.044.264-.075.396-.11l.8-.215.914 3.77zM34.049 12.493l-.65-.015-.327-.01-.325.01-.065-3.878.39-.01.387.01.78.019-.19 3.874zM39.621 13.578l-.582-.188-.291-.094c-.096-.031-.197-.053-.294-.081l1.052-3.735c.118.034.236.063.351.099l.349.11.695.227-1.28 3.662zM44.648 16.21l-.47-.327-.233-.164-.243-.151 2.089-3.268.29.183.28.195.56.392-2.273 3.14zM48.721 20.168l-.324-.42-.347-.405 2.938-2.531.414.481.39.503-3.07 2.372zM51.505 25.108c-.108-.31-.248-.606-.375-.91l3.544-1.573c.157.361.32.717.45 1.088l-3.619 1.395zM52.761 30.642c-.014-.3-.057-.601-.091-.9l3.847-.483c.044.358.092.717.111 1.076l-3.867.307zM52.398 36.31c.026-.136.063-.268.084-.405l.068-.407 3.826.64-.082.486c-.027.164-.068.323-.101.484l-3.795-.799zM50.442 41.634c.127-.214.23-.44.341-.662l3.477 1.72c-.132.268-.26.537-.409.795l-3.41-1.853zM47.047 46.184l.46-.486 2.831 2.65-.548.577-2.743-2.741zM22.292 41.076c.15.173.296.346.448.517l.471.496-1.939 1.94-.563-.593c-.18-.204-.356-.411-.534-.618l2.117-1.742zM20.218 37.642c.168.404.358.796.565 1.181l-2.415 1.3a16.985 16.985 0 01-.676-1.418l2.526-1.063zM19.21 33.76c.043.417.113.831.192 1.242l-2.687.544c-.096-.49-.178-.986-.231-1.484l2.726-.301zM19.345 29.747l-.05.296a4.115 4.115 0 00-.044.296c-.022.2-.05.397-.07.597l-2.73-.25c.02-.238.055-.474.08-.713.013-.117.032-.238.054-.353l.06-.354 2.7.481zM20.61 25.943l-.127.255-.063.128-.058.13-.226.524-2.543-1.027c.089-.21.18-.419.272-.628.024-.053.045-.106.07-.156l.074-.154.152-.308 2.45 1.236zM22.913 22.659l-.188.197-.178.207c-.115.14-.24.272-.351.416l-2.134-1.72c.132-.17.279-.332.418-.498.07-.082.14-.166.212-.245l.224-.236 1.997 1.879zM26.05 20.156c-.149.085-.29.18-.437.27l-.22.137-.211.147-1.554-2.26.252-.175.262-.164c.176-.108.347-.221.527-.322l1.381 2.367zM29.768 18.655l-.471.127c-.078.022-.16.041-.236.065l-.231.075-.833-2.613.28-.09c.09-.03.187-.052.28-.079l.564-.151.647 2.666zM33.765 18.275l-.46-.01-.228-.007-.231.007-.046-2.743.274-.005.274.005.551.015-.134 2.738zM37.704 19.042l-.412-.132-.204-.067c-.068-.022-.14-.039-.207-.058l.743-2.64c.082.024.166.044.248.07l.245.08.491.158-.904 2.59zM41.257 20.902l-.332-.23-.166-.116-.17-.106 1.477-2.31.204.127.198.14.397.274-1.608 2.221zM44.138 23.7l-.231-.298-.246-.284 2.077-1.79.293.342.275.354-2.168 1.677zM46.103 27.192c-.077-.219-.175-.428-.267-.642l2.505-1.112c.11.255.227.508.318.77l-2.556.984zM46.994 31.104c-.01-.214-.041-.423-.065-.637l2.721-.342c.029.253.065.505.08.76l-2.736.22zM46.736 35.11c.02-.096.046-.19.06-.286l.049-.289 2.704.453-.058.344c-.019.115-.048.228-.07.341l-2.685-.563zM45.353 38.874c.089-.152.163-.31.243-.47l2.457 1.216c-.094.188-.183.38-.29.56l-2.41-1.306zM42.951 42.088l.328-.341 2.002 1.872-.39.409-1.94-1.94z"/></svg><svg viewBox="0 0 20 20" id="phone" xmlns="http://www.w3.org/2000/svg"><path d="M16.286 13.643c0-.063 0-.125-.027-.188-.063-.187-.5-.383-.679-.473-.508-.285-1.026-.562-1.526-.857-.232-.143-.518-.41-.795-.41-.545 0-1.34 1.615-1.821 1.615-.242 0-.554-.223-.768-.348-1.625-.902-2.75-2.027-3.652-3.652-.125-.214-.348-.526-.348-.767 0-.483 1.616-1.277 1.616-1.822 0-.277-.268-.562-.41-.794-.296-.5-.572-1.018-.858-1.527-.09-.179-.286-.616-.473-.679-.063-.027-.125-.027-.188-.027-.321 0-.946.143-1.24.277-.438.188-.724.688-.947 1.09-.286.526-.456 1.062-.456 1.66 0 .83.34 1.58.616 2.34.197.544.438 1.07.742 1.562.937 1.518 2.767 3.348 4.285 4.286a8.344 8.344 0 001.563.74c.759.277 1.509.617 2.339.617.598 0 1.134-.17 1.66-.456.402-.223.902-.508 1.09-.946.134-.295.277-.92.277-1.241z"/></svg><svg viewBox="0 0 26 26" id="phone-outline" xmlns="http://www.w3.org/2000/svg"><path d="M19.465 14.826c-.412-.43-.91-.66-1.438-.66-.524 0-1.026.226-1.456.656l-1.345 1.34c-.11-.06-.221-.114-.328-.17-.153-.077-.297-.149-.42-.225-1.26-.8-2.406-1.843-3.504-3.193-.532-.672-.89-1.238-1.149-1.813.349-.319.673-.651.987-.97l.358-.362c.894-.894.894-2.052 0-2.945l-1.162-1.162c-.132-.132-.268-.268-.396-.405a20.1 20.1 0 00-.8-.791c-.413-.409-.907-.626-1.426-.626-.52 0-1.021.217-1.447.626l-.009.008-1.447 1.46a3.114 3.114 0 00-.923 1.98c-.102 1.242.264 2.4.545 3.157.69 1.86 1.72 3.584 3.256 5.431 1.864 2.226 4.107 3.984 6.67 5.223.978.464 2.285 1.013 3.745 1.106.09.005.183.009.268.009.983 0 1.809-.353 2.456-1.056.004-.008.012-.012.017-.02.221-.269.476-.512.745-.771.183-.175.37-.358.553-.55.421-.438.643-.948.643-1.472 0-.528-.226-1.034-.656-1.46l-2.337-2.345zm1.524 4.482c-.004.004-.004 0 0 0-.166.179-.336.34-.52.52-.276.263-.557.54-.82.85-.43.46-.937.677-1.6.677-.065 0-.133 0-.197-.004-1.264-.081-2.438-.575-3.32-.996a18.907 18.907 0 01-6.282-4.92c-1.451-1.75-2.422-3.367-3.064-5.104-.396-1.06-.54-1.885-.477-2.664.043-.498.234-.91.587-1.264L6.748 4.95c.208-.195.43-.302.647-.302.268 0 .485.162.621.298l.013.013c.26.243.506.494.766.762.132.136.268.272.404.413l1.162 1.162c.451.45.451.868 0 1.319-.123.123-.242.247-.366.366-.357.366-.698.707-1.068 1.039-.009.008-.017.012-.021.02-.366.367-.298.724-.222.967l.013.038c.302.732.728 1.422 1.375 2.243l.004.005c1.175 1.447 2.413 2.575 3.78 3.439.174.11.353.2.523.285.153.076.298.149.422.226.017.008.034.02.05.03a.923.923 0 00.422.106c.353 0 .575-.222.647-.294l1.456-1.456c.144-.144.374-.319.642-.319.264 0 .481.166.613.31a.34.34 0 01.009.01l2.345 2.345c.438.434.438.88.004 1.332z"/></svg><svg viewBox="0 0 20 20" id="telegram" xmlns="http://www.w3.org/2000/svg"><path d="M18.437 4.33L15.82 16.791c-.195.86-.742 1.094-1.484.664l-4.024-2.969-1.914 1.875c-.234.235-.39.39-.82.39l.273-4.1 7.461-6.72c.352-.273-.078-.468-.508-.156l-9.218 5.782-3.946-1.211c-.86-.274-.898-.86.157-1.29L17.343 3.08c.704-.273 1.329.156 1.094 1.25z"/></svg></svg>