<svg width="20" height="20" viewBox="0 0 20 20" xmlns="http://www.w3.org/2000/svg">
<path d="M9.76953 5.23828C12.2305 5.23828 14.2617 7.26953 14.2617 9.73047C14.2617 12.2305 12.2305 14.2227 9.76953 14.2227C7.26953 14.2227 5.27734 12.2305 5.27734 9.73047C5.27734 7.26953 7.26953 5.23828 9.76953 5.23828ZM9.76953 12.6602C11.3711 12.6602 12.6602 11.3711 12.6602 9.73047C12.6602 8.12891 11.3711 6.83984 9.76953 6.83984C8.12891 6.83984 6.83984 8.12891 6.83984 9.73047C6.83984 11.3711 8.16797 12.6602 9.76953 12.6602ZM15.4727 5.08203C15.4727 5.66797 15.0039 6.13672 14.418 6.13672C13.832 6.13672 13.3633 5.66797 13.3633 5.08203C13.3633 4.49609 13.832 4.02734 14.418 4.02734C15.0039 4.02734 15.4727 4.49609 15.4727 5.08203ZM18.4414 6.13672C18.5195 7.58203 18.5195 11.918 18.4414 13.3633C18.3633 14.7695 18.0508 15.9805 17.0352 17.0352C16.0195 18.0508 14.7695 18.3633 13.3633 18.4414C11.918 18.5195 7.58203 18.5195 6.13672 18.4414C4.73047 18.3633 3.51953 18.0508 2.46484 17.0352C1.44922 15.9805 1.13672 14.7695 1.05859 13.3633C0.980469 11.918 0.980469 7.58203 1.05859 6.13672C1.13672 4.73047 1.44922 3.48047 2.46484 2.46484C3.51953 1.44922 4.73047 1.13672 6.13672 1.05859C7.58203 0.980469 11.918 0.980469 13.3633 1.05859C14.7695 1.13672 16.0195 1.44922 17.0352 2.46484C18.0508 3.48047 18.3633 4.73047 18.4414 6.13672ZM16.5664 14.8867C17.0352 13.7539 16.918 11.0195 16.918 9.73047C16.918 8.48047 17.0352 5.74609 16.5664 4.57422C16.2539 3.83203 15.668 3.20703 14.9258 2.93359C13.7539 2.46484 11.0195 2.58203 9.76953 2.58203C8.48047 2.58203 5.74609 2.46484 4.61328 2.93359C3.83203 3.24609 3.24609 3.83203 2.93359 4.57422C2.46484 5.74609 2.58203 8.48047 2.58203 9.73047C2.58203 11.0195 2.46484 13.7539 2.93359 14.8867C3.24609 15.668 3.83203 16.2539 4.61328 16.5664C5.74609 17.0352 8.48047 16.918 9.76953 16.918C11.0195 16.918 13.7539 17.0352 14.9258 16.5664C15.668 16.2539 16.293 15.668 16.5664 14.8867Z"/>
</svg>
