<svg width="66" height="56" viewBox="0 0 66 56" xmlns="http://www.w3.org/2000/svg">
<path d="M12.2656 49.3046C12.5543 49.6366 12.8358 49.9735 13.127 50.3031L14.0365 51.2607L10.2973 54.9999L9.21218 53.857C8.86334 53.4649 8.52403 53.0606 8.18237 52.6636L12.2656 49.3046Z"/>
<path d="M8.26675 42.6828C8.59159 43.4601 8.95973 44.2204 9.3567 44.9638L4.69844 47.4687C4.22437 46.5785 3.78409 45.6689 3.39429 44.7353L8.26675 42.6828Z"/>
<path d="M6.32245 35.1927C6.40672 35.9963 6.539 36.7952 6.69294 37.5868L1.51011 38.6359C1.32239 37.6879 1.16845 36.7351 1.065 35.7726L6.32245 35.1927Z"/>
<path d="M6.57992 27.454L6.48365 28.0242L6.43551 28.3105C6.42104 28.4068 6.41151 28.5031 6.39938 28.5969L6.32958 29.1719L6.29593 29.4583C6.28392 29.5545 6.27192 29.6508 6.26709 29.747L1 29.2657C1.00718 29.1502 1.02165 29.0372 1.03366 28.9216L1.07462 28.5774L1.15642 27.8893C1.17089 27.7738 1.1829 27.6607 1.19973 27.5452L1.25751 27.2035L1.37297 26.5202L6.57992 27.454Z"/>
<path d="M9.02464 20.1128L8.77927 20.6061L8.6565 20.8539C8.61801 20.9382 8.58189 21.0224 8.54588 21.1066L8.10795 22.1172L3.20416 20.1369C3.37505 19.7303 3.553 19.3285 3.72871 18.9242C3.77438 18.8231 3.81534 18.7222 3.861 18.6211L4.00776 18.3251L4.30128 17.7332L9.02464 20.1128Z"/>
<path d="M13.4663 13.7777L13.103 14.1579C12.9876 14.2878 12.8745 14.4226 12.7614 14.5548L12.4197 14.9543C12.3066 15.0866 12.1887 15.2165 12.0852 15.3586L7.9635 12.0405C8.08861 11.872 8.2282 11.718 8.36295 11.5569L8.77206 11.0804C8.90917 10.9217 9.04393 10.7628 9.18352 10.6064L9.61427 10.1516L13.4663 13.7777Z"/>
<path d="M19.5179 8.9486C19.3711 9.02557 19.234 9.12185 19.092 9.20612L18.6709 9.47081L18.2498 9.73551L17.8431 10.0194L14.845 5.66181L15.3335 5.3225L15.8387 5.00485L16.344 4.68966C16.5149 4.58621 16.6784 4.47546 16.854 4.38166L19.5179 8.9486Z"/>
<path d="M26.6906 6.05408L25.7811 6.29947C25.6295 6.34278 25.4779 6.37644 25.3287 6.42458L24.8811 6.56899L23.2762 1.53045L23.8128 1.35721C23.9909 1.29942 24.1738 1.25611 24.3542 1.20562L25.4418 0.914444L26.6906 6.05408Z"/>
<path d="M34.4 5.32006L33.5121 5.2984L33.0694 5.28875L32.6266 5.30076L32.5376 0.0119999L33.067 0L33.5964 0.0119999C33.9501 0.0216521 34.3039 0.0264859 34.6575 0.0384892L34.4 5.32006Z"/>
<path d="M42.001 6.79962L41.2094 6.54458L40.8124 6.417C40.6802 6.37369 40.5454 6.34238 40.4106 6.30637L41.8447 1.215C42.0035 1.26066 42.1672 1.29926 42.326 1.34975L42.8 1.50134L43.748 1.80935L42.001 6.79962Z"/>
<path d="M48.8537 10.3897L48.2137 9.94453L47.8937 9.7208L47.564 9.51378L50.4129 5.05758L50.8075 5.30545L51.1901 5.57249L51.9553 6.1067L48.8537 10.3897Z"/>
<path d="M54.4096 15.7846L53.9644 15.2119L53.4928 14.6632L57.4991 11.208L58.0621 11.8673L58.5939 12.5531L54.4096 15.7846Z"/>
<path d="M58.2065 22.5242C58.0598 22.1007 57.8697 21.6964 57.694 21.285L62.528 19.1388C62.7397 19.6297 62.9634 20.1181 63.1415 20.6233L58.2065 22.5242Z"/>
<path d="M59.9197 30.0699C59.9004 29.6585 59.8402 29.2519 59.7921 28.8428L65.0399 28.1834C65.0977 28.6719 65.165 29.1603 65.1915 29.6512L59.9197 30.0699Z"/>
<path d="M59.424 37.7985L59.4841 37.5242C59.5058 37.4327 59.5251 37.3413 59.5394 37.2475L59.6332 36.6916L64.8499 37.565L64.7367 38.2292C64.7199 38.3398 64.6958 38.4505 64.6718 38.5588L64.5996 38.8885L59.424 37.7985Z"/>
<path d="M56.7556 45.0577C56.9288 44.7665 57.0707 44.4585 57.2223 44.153L61.9625 46.4966C61.7821 46.8599 61.6088 47.2281 61.4043 47.5794L56.7556 45.0577Z"/>
<path d="M52.1237 51.2605L52.7517 50.5989L56.6137 54.213L55.8629 54.9997L52.1237 51.2605Z"/>
<path d="M17.8167 44.747C18.0285 44.9901 18.2354 45.2379 18.4496 45.481L19.1161 46.1836L16.373 48.9267L15.5766 48.0893C15.3215 47.8006 15.0713 47.5069 14.821 47.2134L17.8167 44.747Z"/>
<path d="M14.8836 39.8915C15.1218 40.4618 15.3914 41.0176 15.6825 41.5638L12.2658 43.3997C11.917 42.7452 11.5945 42.0787 11.3081 41.3954L14.8836 39.8915Z"/>
<path d="M13.4567 34.3985C13.5193 34.988 13.6154 35.5727 13.7285 36.1549L9.92682 36.9249C9.78971 36.2295 9.67661 35.5293 9.60199 34.8266L13.4567 34.3985Z"/>
<path d="M13.6467 28.7249L13.577 29.1435L13.5408 29.3529C13.5288 29.4227 13.524 29.4925 13.5143 29.5646C13.483 29.8461 13.4422 30.1253 13.4181 30.4092L9.55621 30.0555C9.58752 29.7187 9.63318 29.3842 9.67167 29.0474C9.68367 28.9631 9.69098 28.879 9.70298 28.7947L9.74395 28.5445L9.82821 28.044L13.6467 28.7249Z"/>
<path d="M15.4393 23.342L15.2589 23.7053L15.1699 23.8857C15.1411 23.9458 15.1169 24.0085 15.0881 24.0709L14.7681 24.8121L11.171 23.3588C11.2961 23.0604 11.426 22.7669 11.5559 22.4686C11.5896 22.394 11.6185 22.3193 11.6546 22.2472L11.7605 22.0306L11.9747 21.5975L15.4393 23.342Z"/>
<path d="M18.6973 18.6957L18.4303 18.9748C18.346 19.0711 18.2619 19.1697 18.1801 19.266L17.9299 19.5572C17.8481 19.6558 17.759 19.7497 17.6845 19.8532L14.6624 17.4206C14.7538 17.2978 14.8573 17.1847 14.9559 17.0669L15.2567 16.7181C15.3578 16.6026 15.4565 16.4847 15.5576 16.3692L15.8727 16.0348L18.6973 18.6957Z"/>
<path d="M23.1343 15.1537C23.0261 15.2091 22.9274 15.2788 22.8215 15.3438L22.5111 15.5364L22.2032 15.7289L21.9048 15.9383L19.7056 12.7429L20.0641 12.4927L20.4346 12.2593L20.8051 12.0283C20.9302 11.9537 21.0505 11.8695 21.178 11.8021L23.1343 15.1537Z"/>
<path d="M28.3966 13.0294L27.7301 13.2099C27.6194 13.2412 27.5063 13.2652 27.3981 13.3013L27.0709 13.4072L25.8943 9.71133L26.2865 9.58374C26.4164 9.54043 26.5512 9.50913 26.6834 9.47312L27.4823 9.25891L28.3966 13.0294Z"/>
<path d="M34.0487 12.4928L33.399 12.4783L33.0717 12.4687L32.7469 12.4783L32.6819 8.59956L33.0717 8.59002L33.4592 8.59956L34.2388 8.61886L34.0487 12.4928Z"/>
<path d="M39.6213 13.5779L39.039 13.3902L38.7478 13.2964C38.6515 13.265 38.5505 13.2434 38.4543 13.2146L39.5057 9.48017C39.6236 9.51383 39.7416 9.54278 39.857 9.57879L40.2059 9.68941L40.9012 9.91562L39.6213 13.5779Z"/>
<path d="M44.6478 16.2102L44.1786 15.883L43.9452 15.7194L43.7022 15.5679L45.7908 12.3002L46.0818 12.4831L46.361 12.678L46.9217 13.0702L44.6478 16.2102Z"/>
<path d="M48.7214 20.1683L48.3966 19.7473L48.0501 19.343L50.9881 16.8117L51.4019 17.293L51.7917 17.7959L48.7214 20.1683Z"/>
<path d="M51.5053 25.1084C51.397 24.798 51.2574 24.502 51.1299 24.1988L54.6743 22.6252C54.8307 22.9861 54.9943 23.3421 55.1242 23.7127L51.5053 25.1084Z"/>
<path d="M52.7613 30.6425C52.7469 30.3417 52.7036 30.041 52.6699 29.7426L56.5174 29.259C56.5607 29.6175 56.6088 29.976 56.628 30.3346L52.7613 30.6425Z"/>
<path d="M52.398 36.3093C52.4245 36.1745 52.4607 36.0422 52.4823 35.905L52.5496 35.4984L56.3755 36.1384L56.2937 36.6244C56.2672 36.788 56.2263 36.9469 56.1926 37.108L52.398 36.3093Z"/>
<path d="M50.4419 41.6339C50.5695 41.4197 50.6729 41.1936 50.7835 40.9722L54.2604 42.6927C54.1281 42.9597 54.0006 43.2292 53.8513 43.4867L50.4419 41.6339Z"/>
<path d="M47.0468 46.184L47.5063 45.6979L50.3384 48.3471L49.7897 48.9246L47.0468 46.184Z"/>
<path d="M22.2921 41.0758C22.4413 41.2491 22.5881 41.4223 22.7397 41.5932L23.2113 42.0889L21.272 44.0283L20.7089 43.4364C20.5285 43.2318 20.3528 43.0249 20.1747 42.818L22.2921 41.0758Z"/>
<path d="M20.218 37.6419C20.3864 38.0461 20.5765 38.4383 20.7834 38.8233L18.3676 40.1226C18.1223 39.6607 17.8936 39.1891 17.6915 38.7053L20.218 37.6419Z"/>
<path d="M19.2099 33.7609C19.2532 34.1772 19.323 34.591 19.4024 35.0025L16.7148 35.5462C16.6185 35.0553 16.5367 34.5597 16.4838 34.0616L19.2099 33.7609Z"/>
<path d="M19.3447 29.7472L19.2942 30.0432C19.2773 30.1418 19.2605 30.2404 19.2509 30.3392C19.2292 30.5389 19.2004 30.7362 19.1811 30.9359L16.4501 30.6857C16.4718 30.4475 16.5055 30.2116 16.5319 29.9734C16.5439 29.8555 16.5632 29.7352 16.5849 29.6197L16.645 29.2661L19.3447 29.7472Z"/>
<path d="M20.6103 25.9434L20.4827 26.1984L20.4201 26.326C20.4008 26.3693 20.3816 26.4126 20.3623 26.4559L20.1361 26.9805L17.5928 25.953C17.6817 25.7436 17.7732 25.5344 17.8646 25.325C17.8886 25.272 17.9103 25.2191 17.9344 25.1686L18.009 25.0146L18.1606 24.7066L20.6103 25.9434Z"/>
<path d="M22.913 22.659L22.7252 22.8562L22.5472 23.0631C22.4317 23.2027 22.3066 23.335 22.1959 23.4794L20.0616 21.759C20.1939 21.5881 20.3408 21.4269 20.4802 21.2609C20.55 21.1791 20.6198 21.0948 20.692 21.0155L20.9157 20.7796L22.913 22.659Z"/>
<path d="M26.0505 20.1564C25.9013 20.2407 25.7593 20.3369 25.6126 20.426L25.3937 20.5631L25.1819 20.7098L23.6276 18.4505L23.8803 18.2749L24.1425 18.1113C24.3181 18.003 24.489 17.8899 24.6694 17.7888L26.0505 20.1564Z"/>
<path d="M29.7681 18.6547L29.2965 18.7823C29.2195 18.8039 29.1378 18.8232 29.0607 18.8472L28.8296 18.9219L27.9971 16.3087L28.2762 16.2197C28.3677 16.1884 28.464 16.1668 28.5578 16.1403L29.1208 15.9887L29.7681 18.6547Z"/>
<path d="M33.7646 18.275L33.3051 18.2653L33.0765 18.258L32.8456 18.2653L32.7998 15.5223L33.0741 15.5174L33.3484 15.5223L33.8994 15.5367L33.7646 18.275Z"/>
<path d="M37.7036 19.0424L37.2921 18.9101L37.0876 18.8428C37.0203 18.8211 36.948 18.8043 36.8807 18.785L37.6241 16.1454C37.7059 16.1694 37.7902 16.1887 37.872 16.2152L38.1174 16.2946L38.6083 16.4534L37.7036 19.0424Z"/>
<path d="M41.2574 20.9021L40.9254 20.6711L40.7594 20.5557L40.5886 20.4497L42.066 18.1399L42.2704 18.2674L42.4678 18.4069L42.8648 18.6813L41.2574 20.9021Z"/>
<path d="M44.1377 23.7008L43.9068 23.4024L43.6613 23.1184L45.7378 21.3283L46.0314 21.67L46.3057 22.0236L44.1377 23.7008Z"/>
<path d="M46.1035 27.1923C46.0265 26.9734 45.9279 26.764 45.8364 26.5498L48.3413 25.4382C48.4519 25.6932 48.5675 25.9459 48.6589 26.2081L46.1035 27.1923Z"/>
<path d="M46.9937 31.1042C46.9841 30.89 46.9528 30.6807 46.9288 30.4665L49.6502 30.1249C49.679 30.3776 49.7152 30.6301 49.7296 30.8852L46.9937 31.1042Z"/>
<path d="M46.7363 35.1104C46.7556 35.0141 46.782 34.9203 46.7964 34.824L46.8446 34.5353L49.5491 34.9877L49.4914 35.3319C49.4721 35.4473 49.4432 35.5604 49.4216 35.6735L46.7363 35.1104Z"/>
<path d="M45.3528 38.874C45.4418 38.7224 45.5164 38.5637 45.5958 38.4048L48.0526 39.6198C47.9588 39.8075 47.8697 40 47.7639 40.1805L45.3528 38.874Z"/>
<path d="M42.9514 42.0883L43.2787 41.7466L45.2806 43.6187L44.8908 44.0276L42.9514 42.0883Z"/>
</svg>