<svg width="20" height="20" viewBox="0 0 20 20" xmlns="http://www.w3.org/2000/svg"><path d="M16.2858 13.6429C16.2858 13.5804 16.2858 13.5179 16.259 13.4554C16.1965 13.2679 15.759 13.0715 15.5804 12.9822C15.0715 12.6965 14.5536 12.4197 14.0536 12.1251C13.8215 11.9822 13.5358 11.7144 13.259 11.7144C12.7144 11.7144 11.9197 13.3304 11.4376 13.3304C11.1965 13.3304 10.884 13.1072 10.6697 12.9822C9.04471 12.0804 7.91971 10.9554 7.01793 9.33043C6.89293 9.11614 6.66971 8.80364 6.66971 8.56257C6.66971 8.08043 8.28578 7.28578 8.28578 6.74114C8.28578 6.46436 8.01793 6.17864 7.87507 5.9465C7.58043 5.4465 7.30364 4.92864 7.01793 4.41971C6.92864 4.24114 6.73221 3.80364 6.54471 3.74114C6.48221 3.71436 6.41971 3.71436 6.35721 3.71436C6.03578 3.71436 5.41078 3.85721 5.11614 3.99114C4.67864 4.17864 4.39293 4.67864 4.16971 5.08043C3.884 5.60721 3.71436 6.14293 3.71436 6.74114C3.71436 7.5715 4.05364 8.3215 4.33043 9.08043C4.52686 9.62507 4.76793 10.1519 5.0715 10.6429C6.009 12.1608 7.83935 13.9911 9.35721 14.9286C9.84828 15.2322 10.3751 15.4733 10.9197 15.6697C11.6786 15.9465 12.4286 16.2858 13.259 16.2858C13.8572 16.2858 14.3929 16.1161 14.9197 15.8304C15.3215 15.6072 15.8215 15.3215 16.009 14.884C16.1429 14.5894 16.2858 13.9644 16.2858 13.6429Z"/></svg>