<svg width="26" height="26" viewBox="0 0 26 26" xmlns="http://www.w3.org/2000/svg">
<path fill-rule="evenodd" clip-rule="evenodd" d="M18.5285 16.586C20.1778 13.9644 21.1414 11.6336 21.1414 9.39151C21.1414 4.89508 17.4963 1.25 12.9999 1.25C8.50348 1.25 4.8584 4.89508 4.8584 9.39151C4.8584 11.6336 5.82201 13.9644 7.47133 16.586C8.80922 18.7126 10.5334 20.9348 12.4327 23.3826C12.6201 23.6241 12.8093 23.8679 12.9999 24.114C13.1905 23.8679 13.3797 23.6241 13.5671 23.3825C15.4664 20.9347 17.1906 18.7126 18.5285 16.586ZM13.6317 24.9314C13.8708 24.6226 14.1082 24.3166 14.3436 24.0134C18.5886 18.543 22.1414 13.9646 22.1414 9.39151C22.1414 4.34279 18.0486 0.25 12.9999 0.25C7.95119 0.25 3.8584 4.34279 3.8584 9.39151C3.8584 13.9646 7.41121 18.543 11.6563 24.0134C11.8916 24.3166 12.129 24.6226 12.3681 24.9314C12.5775 25.202 12.7883 25.4749 12.9999 25.75C13.2116 25.4749 13.4223 25.202 13.6317 24.9314Z"/>
<path fill-rule="evenodd" clip-rule="evenodd" d="M12.9999 12.7217C14.8391 12.7217 16.3301 11.2307 16.3301 9.39147C16.3301 7.55226 14.8391 6.06128 12.9999 6.06128C11.1607 6.06128 9.66968 7.55226 9.66968 9.39147C9.66968 11.2307 11.1607 12.7217 12.9999 12.7217ZM12.9999 13.7217C15.3914 13.7217 17.3301 11.783 17.3301 9.39147C17.3301 6.99997 15.3914 5.06128 12.9999 5.06128C10.6084 5.06128 8.66968 6.99997 8.66968 9.39147C8.66968 11.783 10.6084 13.7217 12.9999 13.7217Z"/>
</svg>
