<svg width="26" height="26" viewBox="0 0 26 26" xmlns="http://www.w3.org/2000/svg">
<path fill-rule="evenodd" clip-rule="evenodd" d="M13 22.5C18.2467 22.5 22.5 18.2467 22.5 13C22.5 7.75329 18.2467 3.5 13 3.5C7.75329 3.5 3.5 7.75329 3.5 13C3.5 18.2467 7.75329 22.5 13 22.5ZM13 23.5C18.799 23.5 23.5 18.799 23.5 13C23.5 7.20101 18.799 2.5 13 2.5C7.20101 2.5 2.5 7.20101 2.5 13C2.5 18.799 7.20101 23.5 13 23.5Z"/>
<path fill-rule="evenodd" clip-rule="evenodd" d="M13.5 5.5L13.5 13.5L12.5 13.5L12.5 5.5L13.5 5.5Z"/>
<path fill-rule="evenodd" clip-rule="evenodd" d="M17.5 13.5H12.5V12.5H17.5V13.5Z"/>
</svg>
