<svg width="26" height="26" viewBox="0 0 26 26" xmlns="http://www.w3.org/2000/svg">
<path d="M19.4654 14.8259C19.0526 14.3961 18.5546 14.1662 18.0268 14.1662C17.5033 14.1662 17.0011 14.3918 16.5712 14.8217L15.2262 16.1624C15.1155 16.1028 15.0049 16.0475 14.8985 15.9922C14.7452 15.9155 14.6005 15.8432 14.4771 15.7666C13.2172 14.9664 12.0723 13.9236 10.9742 12.5744C10.4421 11.9019 10.0846 11.3358 9.82498 10.7612C10.174 10.442 10.4975 10.11 10.8124 9.79077C10.9316 9.67159 11.0508 9.54816 11.17 9.42899C12.0638 8.53517 12.0638 7.37746 11.17 6.48365L10.008 5.32168C9.87606 5.18974 9.73986 5.05354 9.61217 4.91734C9.35679 4.65345 9.08865 4.38105 8.81199 4.12567C8.39913 3.71707 7.9054 3.5 7.38614 3.5C6.86687 3.5 6.36463 3.71707 5.93901 4.12567C5.93475 4.12993 5.93475 4.12993 5.93049 4.13418L4.48336 5.59409C3.93856 6.13889 3.62785 6.80287 3.55975 7.57325C3.4576 8.81608 3.82364 9.97379 4.10455 10.7314C4.79407 12.5914 5.82409 14.3152 7.3606 16.1624C9.22485 18.3884 11.4679 20.1463 14.0302 21.3849C15.0091 21.8488 16.3158 22.3978 17.7757 22.4915C17.8651 22.4957 17.9587 22.5 18.0438 22.5C19.027 22.5 19.8528 22.1467 20.4997 21.4444C20.504 21.4359 20.5125 21.4317 20.5167 21.4232C20.7381 21.155 20.9934 20.9124 21.2616 20.6528C21.4446 20.4783 21.6319 20.2953 21.8149 20.1037C22.2363 19.6653 22.4576 19.1546 22.4576 18.631C22.4576 18.1033 22.232 17.5968 21.8021 17.1711L19.4654 14.8259ZM20.9892 19.3078C20.9849 19.3121 20.9849 19.3078 20.9892 19.3078C20.8232 19.4866 20.6529 19.6483 20.4699 19.8271C20.1933 20.0909 19.9124 20.3676 19.6485 20.6783C19.2186 21.138 18.7121 21.3551 18.0481 21.3551C17.9843 21.3551 17.9162 21.3551 17.8523 21.3508C16.5882 21.2699 15.4135 20.7762 14.5324 20.3548C12.1234 19.1886 10.008 17.5329 8.25016 15.4346C6.79877 13.6853 5.82834 12.0679 5.18565 10.3313C4.78981 9.27151 4.6451 8.44579 4.70894 7.66689C4.75151 7.16891 4.94304 6.75605 5.29631 6.40278L6.7477 4.95139C6.95626 4.7556 7.17758 4.64919 7.39465 4.64919C7.6628 4.64919 7.87987 4.81093 8.01607 4.94713C8.02032 4.95139 8.02458 4.95565 8.02884 4.9599C8.28847 5.20251 8.53533 5.45363 8.79497 5.72177C8.92691 5.85798 9.06311 5.99418 9.19931 6.13463L10.3613 7.2966C10.8124 7.74776 10.8124 8.16487 10.3613 8.61604C10.2378 8.73947 10.1187 8.8629 9.99523 8.98208C9.63771 9.34812 9.29721 9.68862 8.92691 10.0206C8.9184 10.0291 8.90989 10.0334 8.90563 10.0419C8.53959 10.4079 8.60769 10.7655 8.6843 11.0081C8.68856 11.0208 8.69282 11.0336 8.69707 11.0464C8.99927 11.7784 9.42489 12.468 10.0718 13.2894L10.0761 13.2937C11.2508 14.7408 12.4894 15.8687 13.8557 16.7328C14.0302 16.8434 14.2089 16.9328 14.3792 17.0179C14.5324 17.0945 14.6771 17.1669 14.8006 17.2435C14.8176 17.252 14.8346 17.2648 14.8516 17.2733C14.9964 17.3457 15.1326 17.3797 15.273 17.3797C15.6263 17.3797 15.8476 17.1584 15.92 17.086L17.3756 15.6304C17.5203 15.4857 17.7502 15.3112 18.0183 15.3112C18.2822 15.3112 18.4993 15.4771 18.6312 15.6219C18.6355 15.6261 18.6355 15.6261 18.6397 15.6304L20.9849 17.9756C21.4233 18.4097 21.4233 18.8566 20.9892 19.3078Z"/>
</svg>
